<svg xmlns="http://www.w3.org/2000/svg" viewBox="119 157 1855 1708">
  <path fill="#cf7f64" d="M666 157h382v79h77v-79h309v79h77v155h77v233h154v77h78v77h-78v79h-77l1 55v254h77V857h77v309h77v154h77v155h-77v77h-309v155h-78v154h-154v-231h78v-78h-155v155h-77v154h-154v-231l77-1v-77H816v155h-77v154H585v-231h78l-1-2v-76H508v155h-78v154H276v-231h77v-232h77v-155H122V934h308V778H276v-77h77v-77h155V391h77V236h77v-73q-1-7 4-6"/>
  <path fill="#161616" d="M666 157h382v79h77v-79h309v79h77v155h77v233h154v77h78v77h-154v-77h-310v77H276v-77h77v-77h155V391h77V236h77v-73q-1-7 4-6"/>
  <path fill="#cf7e64" d="M1356 701h310v77h76v79h-77v31l1 24v254h77V857h77v309h77v154h77v155h-154v-77h-77v-78h-387v-77h-77v-77h-17l-55 1h-7l-3-7v-8l1-12v-2l-1-11v-7l1-4v-70l1-190q3-2 8-2l3-1h33l15 1h19v-75H508v155h-77l-1-156h926z"/>
  <path fill="#161515" d="M1701 624h41v77h78v77h-154v-77h-310v77H276v-77h77v-77h352l299-1h454z"/>
  <path fill="#624119" d="M508 468h1080v155q-3 2-6 1H508z"/>
  <path fill="#4d4686" d="M1743 857h77v309h77v154h77v155h-154v-77h-77v-78h-387v-77h309v-77h-231V934h232v232h77z"/>
  <path fill="#b7755b" d="M431 1243h77v464h-78v154H276v-231h77v-232h78z"/>
  <path d="M1434 934h231v232h-231z"/>
  <path fill="#4f4686" d="M1356 701h310v77h-310z"/>
  <path fill="#4e4586" d="M1202 857h77v309h-77z"/>
  <path fill="#014" d="M739 1011h232v78H739z"/>
</svg>
